<svg width="23" height="14" viewBox="0 0 23 14" fill="none" xmlns="http://www.w3.org/2000/svg">
<path d="M5.25024 12.4843L5.24297 9.40435L3.73223 11.9415H3.19705L1.69358 9.47009V12.484H0.578949V7.35083H1.56144L3.48281 10.5408L5.37478 7.35083H6.35001L6.36454 12.484H5.25024V12.4843Z" fill="#542E90"/>
<path d="M10.4412 9.96002V12.2114H9.37049V11.7202C9.15773 12.0796 8.7471 12.2702 8.16798 12.2702C7.24396 12.2702 6.69391 11.7568 6.69391 11.075C6.69391 10.3783 7.18515 9.89428 8.38799 9.89428H9.29715C9.29715 9.40303 9.00379 9.11694 8.38799 9.11694C7.97009 9.11694 7.53732 9.25635 7.25156 9.48364L6.84092 8.68417C7.27369 8.37627 7.91162 8.20746 8.54227 8.20746C9.74445 8.20746 10.4412 8.76478 10.4412 9.96002ZM9.29715 10.9646V10.5613H8.51254C7.97736 10.5613 7.80854 10.7592 7.80854 11.0234C7.80854 11.3092 8.0507 11.5002 8.45374 11.5002C8.8353 11.4998 9.165 11.3241 9.29715 10.9646Z" fill="#542E90"/>
<path d="M9.59781 13.7456L9.9057 12.9171C10.0302 13.005 10.1991 13.0565 10.3897 13.0565C10.6758 13.0565 10.8591 12.8731 10.8591 12.4843V8.53882H12.0032V12.4767C12.0032 13.3862 11.4676 13.9653 10.5146 13.9653C10.1624 13.9656 9.81783 13.8996 9.59781 13.7456Z" fill="#542E90"/>
<path d="M16.0051 9.96002V12.2114H14.9344V11.7202C14.7217 12.0796 14.311 12.2702 13.7319 12.2702C12.8079 12.2702 12.2578 11.7568 12.2578 11.075C12.2578 10.3783 12.7491 9.89428 13.9519 9.89428H14.8611C14.8611 9.40303 14.5677 9.11694 13.9519 9.11694C13.534 9.11694 13.1013 9.25635 12.8155 9.48364L12.4049 8.68417C12.8376 8.37627 13.4756 8.20746 14.1062 8.20746C15.3084 8.20746 16.0051 8.76478 16.0051 9.96002ZM14.8611 10.9646V10.5613H14.0765C13.5413 10.5613 13.3725 10.7592 13.3725 11.0234C13.3725 11.3092 13.6146 11.5002 14.0177 11.5002C14.3989 11.4998 14.7289 11.3241 14.8611 10.9646Z" fill="#542E90"/>
<path d="M18.6886 8.19757V9.2534C18.5932 9.24613 18.5198 9.23854 18.4319 9.23854C17.8013 9.23854 17.3834 9.5831 17.3834 10.3386V12.2012H16.2393V8.25637H17.3319V8.77702C17.6107 8.39546 18.0801 8.19757 18.6886 8.19757Z" fill="#542E90"/>
<path d="M22.5 9.96002V12.2114H21.4293V11.7202C21.2165 12.0796 20.8059 12.2702 20.2268 12.2702C19.3028 12.2702 18.7527 11.7568 18.7527 11.075C18.7527 10.3783 19.244 9.89428 20.4468 9.89428H21.356C21.356 9.40303 21.0626 9.11694 20.4468 9.11694C20.0289 9.11694 19.5961 9.25635 19.3104 9.48364L18.8997 8.68417C19.3325 8.37627 19.9704 8.20746 20.6011 8.20746C21.8033 8.20746 22.5 8.76478 22.5 9.96002ZM21.356 10.9646V10.5613H20.5713C20.0362 10.5613 19.8674 10.7592 19.8674 11.0234C19.8674 11.3092 20.1095 11.5002 20.5125 11.5002C20.8938 11.4998 21.2238 11.3241 21.356 10.9646Z" fill="#542E90"/>
<path d="M7.29617 5.14372C7.09003 5.14372 6.91395 5.07038 6.76727 4.92403C6.62059 4.77768 6.54758 4.60027 6.54758 4.39182C6.54758 4.18369 6.62092 4.00629 6.76727 3.85961C6.91395 3.71326 7.09003 3.63992 7.29617 3.63992C7.57103 3.63992 7.82376 3.57352 8.05501 3.44071C8.28626 3.30791 8.46829 3.12588 8.60109 2.89463C8.7339 2.66337 8.8003 2.41032 8.8003 2.13579V1.60754C8.8003 1.4014 8.87331 1.22532 9.01999 1.07864C9.16634 0.932287 9.34374 0.858948 9.5522 0.858948C9.76033 0.858948 9.93773 0.932287 10.0844 1.07864C10.2308 1.22532 10.3041 1.4014 10.3041 1.60754V2.13579C10.3041 2.54345 10.2238 2.93262 10.0636 3.30328C9.90337 3.67427 9.6893 3.99472 9.42138 4.26496C9.15346 4.53519 8.83433 4.74927 8.46333 4.90718C8.093 5.06443 7.70384 5.14372 7.29617 5.14372Z" fill="#542E90"/>
<path d="M15.3983 7.00794H7.29617C7.09003 7.00794 6.91395 6.9346 6.76727 6.78825C6.62059 6.64157 6.54758 6.46549 6.54758 6.25934C6.54758 6.0532 6.62092 5.87712 6.76727 5.73044C6.91395 5.58409 7.09003 5.51075 7.29617 5.51075H14.6427V4.00662C14.6427 3.73672 14.576 3.48597 14.4435 3.25472C14.3107 3.02347 14.1287 2.84045 13.8974 2.70533C13.6658 2.57055 13.4154 2.50282 13.1452 2.50282H11.6146C11.4085 2.50282 11.2324 2.42981 11.0857 2.28313C10.9391 2.13678 10.866 1.95938 10.866 1.75092C10.866 1.5428 10.9394 1.36539 11.0857 1.21871C11.2324 1.07236 11.4085 0.999023 11.6146 0.999023H13.1452C13.5529 0.999023 13.942 1.0793 14.313 1.23953C14.684 1.39975 15.0031 1.61382 15.2711 1.88175C15.539 2.14967 15.7517 2.4688 15.9096 2.83979C16.0676 3.21078 16.1465 3.59995 16.1465 4.00728V6.26001C16.1465 6.46615 16.0735 6.64223 15.9268 6.78891C15.7805 6.9346 15.6044 7.00794 15.3983 7.00794Z" fill="#542E90"/>
<path d="M19.4983 7.04229H17.2387C17.0325 7.04229 16.8565 6.96895 16.7098 6.8226C16.5631 6.67592 16.4901 6.49984 16.4901 6.2937V4.03403C16.4901 3.20979 16.7841 2.50381 17.3725 1.91544C17.9608 1.32706 18.6681 1.03271 19.4947 1.03271C20.3213 1.03271 21.0286 1.32706 21.6169 1.91544C22.2053 2.50381 22.4997 3.21111 22.4997 4.03767C22.4997 4.86423 22.2053 5.57153 21.6169 6.1599C21.0289 6.74794 20.3226 7.04229 19.4983 7.04229ZM17.9945 5.53816H19.4987C19.9106 5.53816 20.2635 5.39148 20.5565 5.09845C20.8495 4.80542 20.9959 4.45194 20.9959 4.03734C20.9959 3.62307 20.8492 3.26925 20.5565 2.97622C20.2635 2.68319 19.9096 2.53651 19.4954 2.53651C19.0808 2.53651 18.7273 2.68319 18.4343 2.97622C18.1412 3.26925 17.9949 3.62175 17.9949 4.0337V5.53816H17.9945Z" fill="#542E90"/>
<path d="M5.4108 6.19693C4.84721 6.76053 4.16964 7.04232 3.3781 7.04232C2.58622 7.04232 1.90899 6.76053 1.34539 6.19693C0.781797 5.63334 0.5 4.95577 0.5 4.16423C0.5 3.37269 0.781797 2.69512 1.34539 2.13152C1.90899 1.56793 2.58655 1.28613 3.3781 1.28613C4.16964 1.28613 4.84721 1.56793 5.4108 2.13152C5.97439 2.69512 6.25619 3.37269 6.25619 4.16423C6.25619 4.95577 5.97439 5.63334 5.4108 6.19693ZM4.39461 3.14804C4.11381 2.86757 3.77519 2.72683 3.37843 2.72683C2.98133 2.72683 2.64271 2.86724 2.36191 3.14804C2.0811 3.42885 1.9407 3.76747 1.9407 4.16423C1.9407 4.56132 2.0811 4.89994 2.36191 5.18075C2.64238 5.46155 2.98133 5.60196 3.37843 5.60196C3.77519 5.60196 4.11414 5.46155 4.39461 5.18075C4.67509 4.90027 4.81582 4.56132 4.81582 4.16423C4.81549 3.76747 4.67509 3.42852 4.39461 3.14804Z" fill="#542E90"/>
<path d="M10.9103 7.76577C10.9103 7.48464 11.1155 7.2666 11.4204 7.2666C11.7253 7.2666 11.9305 7.47308 11.9305 7.7486C11.9305 8.04691 11.7253 8.26495 11.4204 8.26495C11.1155 8.26495 10.9103 8.04691 10.9103 7.76577Z" fill="#542E90"/>
<path d="M3.62094 0.499173C3.62094 0.218037 3.82609 0 4.13102 0C4.43594 0 4.64109 0.206475 4.64109 0.481995C4.64109 0.78031 4.43594 0.998348 4.13102 0.998348C3.82609 0.998348 3.62094 0.78031 3.62094 0.499173Z" fill="#542E90"/>
<path d="M2.3031 0.499173C2.3031 0.218037 2.50825 0 2.81318 0C3.1181 0 3.32325 0.206475 3.32325 0.481995C3.32325 0.78031 3.1181 0.998348 2.81318 0.998348C2.50825 0.998348 2.3031 0.78031 2.3031 0.499173Z" fill="#542E90"/>
</svg>
